<svg width="1501" height="993" viewBox="0 0 1501 993" fill="none" xmlns="http://www.w3.org/2000/svg">
<g clip-path="url(#clip0_2_2)">
<rect width="1501" height="993" fill="white"/>
<rect x="1244.59" y="279.946" width="312.074" height="317.583" rx="41" transform="rotate(-36.5153 1244.59 279.946)" fill="#0F531E"/>
<ellipse cx="98.5" cy="142" rx="39.5" ry="39" fill="#F224B9" fill-opacity="0.26"/>
<ellipse cx="572" cy="91.5" rx="18" ry="17.5" fill="#F2C524" fill-opacity="0.6"/>
<path d="M105.59 629.504V635.75C105.379 636.062 105.043 636.414 104.582 636.805C104.121 637.188 103.484 637.523 102.672 637.812C101.867 638.094 100.828 638.234 99.5547 638.234C98.5156 638.234 97.5586 638.055 96.6836 637.695C95.8164 637.328 95.0625 636.797 94.4219 636.102C93.7891 635.398 93.2969 634.547 92.9453 633.547C92.6016 632.539 92.4297 631.398 92.4297 630.125V628.801C92.4297 627.527 92.5781 626.391 92.875 625.391C93.1797 624.391 93.625 623.543 94.2109 622.848C94.7969 622.145 95.5156 621.613 96.3672 621.254C97.2188 620.887 98.1953 620.703 99.2969 620.703C100.602 620.703 101.691 620.93 102.566 621.383C103.449 621.828 104.137 622.445 104.629 623.234C105.129 624.023 105.449 624.922 105.59 625.93H103.328C103.227 625.312 103.023 624.75 102.719 624.242C102.422 623.734 101.996 623.328 101.441 623.023C100.887 622.711 100.172 622.555 99.2969 622.555C98.5078 622.555 97.8242 622.699 97.2461 622.988C96.668 623.277 96.1914 623.691 95.8164 624.23C95.4414 624.77 95.1602 625.422 94.9727 626.188C94.793 626.953 94.7031 627.816 94.7031 628.777V630.125C94.7031 631.109 94.8164 631.988 95.043 632.762C95.2773 633.535 95.6094 634.195 96.0391 634.742C96.4688 635.281 96.9805 635.691 97.5742 635.973C98.1758 636.254 98.8398 636.395 99.5664 636.395C100.371 636.395 101.023 636.328 101.523 636.195C102.023 636.055 102.414 635.891 102.695 635.703C102.977 635.508 103.191 635.324 103.34 635.152V631.332H99.3906V629.504H105.59ZM114.273 638.234C113.391 638.234 112.59 638.086 111.871 637.789C111.16 637.484 110.547 637.059 110.031 636.512C109.523 635.965 109.133 635.316 108.859 634.566C108.586 633.816 108.449 632.996 108.449 632.105V631.613C108.449 630.582 108.602 629.664 108.906 628.859C109.211 628.047 109.625 627.359 110.148 626.797C110.672 626.234 111.266 625.809 111.93 625.52C112.594 625.23 113.281 625.086 113.992 625.086C114.898 625.086 115.68 625.242 116.336 625.555C117 625.867 117.543 626.305 117.965 626.867C118.387 627.422 118.699 628.078 118.902 628.836C119.105 629.586 119.207 630.406 119.207 631.297V632.27H109.738V630.5H117.039V630.336C117.008 629.773 116.891 629.227 116.688 628.695C116.492 628.164 116.18 627.727 115.75 627.383C115.32 627.039 114.734 626.867 113.992 626.867C113.5 626.867 113.047 626.973 112.633 627.184C112.219 627.387 111.863 627.691 111.566 628.098C111.27 628.504 111.039 629 110.875 629.586C110.711 630.172 110.629 630.848 110.629 631.613V632.105C110.629 632.707 110.711 633.273 110.875 633.805C111.047 634.328 111.293 634.789 111.613 635.188C111.941 635.586 112.336 635.898 112.797 636.125C113.266 636.352 113.797 636.465 114.391 636.465C115.156 636.465 115.805 636.309 116.336 635.996C116.867 635.684 117.332 635.266 117.73 634.742L119.043 635.785C118.77 636.199 118.422 636.594 118 636.969C117.578 637.344 117.059 637.648 116.441 637.883C115.832 638.117 115.109 638.234 114.273 638.234ZM127.047 625.32V626.984H120.191V625.32H127.047ZM122.512 622.238H124.68V634.859C124.68 635.289 124.746 635.613 124.879 635.832C125.012 636.051 125.184 636.195 125.395 636.266C125.605 636.336 125.832 636.371 126.074 636.371C126.254 636.371 126.441 636.355 126.637 636.324C126.84 636.285 126.992 636.254 127.094 636.23L127.105 638C126.934 638.055 126.707 638.105 126.426 638.152C126.152 638.207 125.82 638.234 125.43 638.234C124.898 638.234 124.41 638.129 123.965 637.918C123.52 637.707 123.164 637.355 122.898 636.863C122.641 636.363 122.512 635.691 122.512 634.848V622.238ZM144.965 633.688C144.965 633.289 144.902 632.938 144.777 632.633C144.66 632.32 144.449 632.039 144.145 631.789C143.848 631.539 143.434 631.301 142.902 631.074C142.379 630.848 141.715 630.617 140.91 630.383C140.066 630.133 139.305 629.855 138.625 629.551C137.945 629.238 137.363 628.883 136.879 628.484C136.395 628.086 136.023 627.629 135.766 627.113C135.508 626.598 135.379 626.008 135.379 625.344C135.379 624.68 135.516 624.066 135.789 623.504C136.062 622.941 136.453 622.453 136.961 622.039C137.477 621.617 138.09 621.289 138.801 621.055C139.512 620.82 140.305 620.703 141.18 620.703C142.461 620.703 143.547 620.949 144.438 621.441C145.336 621.926 146.02 622.562 146.488 623.352C146.957 624.133 147.191 624.969 147.191 625.859H144.941C144.941 625.219 144.805 624.652 144.531 624.16C144.258 623.66 143.844 623.27 143.289 622.988C142.734 622.699 142.031 622.555 141.18 622.555C140.375 622.555 139.711 622.676 139.188 622.918C138.664 623.16 138.273 623.488 138.016 623.902C137.766 624.316 137.641 624.789 137.641 625.32C137.641 625.68 137.715 626.008 137.863 626.305C138.02 626.594 138.258 626.863 138.578 627.113C138.906 627.363 139.32 627.594 139.82 627.805C140.328 628.016 140.934 628.219 141.637 628.414C142.605 628.688 143.441 628.992 144.145 629.328C144.848 629.664 145.426 630.043 145.879 630.465C146.34 630.879 146.68 631.352 146.898 631.883C147.125 632.406 147.238 633 147.238 633.664C147.238 634.359 147.098 634.988 146.816 635.551C146.535 636.113 146.133 636.594 145.609 636.992C145.086 637.391 144.457 637.699 143.723 637.918C142.996 638.129 142.184 638.234 141.285 638.234C140.496 638.234 139.719 638.125 138.953 637.906C138.195 637.688 137.504 637.359 136.879 636.922C136.262 636.484 135.766 635.945 135.391 635.305C135.023 634.656 134.84 633.906 134.84 633.055H137.09C137.09 633.641 137.203 634.145 137.43 634.566C137.656 634.98 137.965 635.324 138.355 635.598C138.754 635.871 139.203 636.074 139.703 636.207C140.211 636.332 140.738 636.395 141.285 636.395C142.074 636.395 142.742 636.285 143.289 636.066C143.836 635.848 144.25 635.535 144.531 635.129C144.82 634.723 144.965 634.242 144.965 633.688ZM155.102 625.32V626.984H148.246V625.32H155.102ZM150.566 622.238H152.734V634.859C152.734 635.289 152.801 635.613 152.934 635.832C153.066 636.051 153.238 636.195 153.449 636.266C153.66 636.336 153.887 636.371 154.129 636.371C154.309 636.371 154.496 636.355 154.691 636.324C154.895 636.285 155.047 636.254 155.148 636.23L155.16 638C154.988 638.055 154.762 638.105 154.48 638.152C154.207 638.207 153.875 638.234 153.484 638.234C152.953 638.234 152.465 638.129 152.02 637.918C151.574 637.707 151.219 637.355 150.953 636.863C150.695 636.363 150.566 635.691 150.566 634.848V622.238ZM165.121 635.832V629.305C165.121 628.805 165.02 628.371 164.816 628.004C164.621 627.629 164.324 627.34 163.926 627.137C163.527 626.934 163.035 626.832 162.449 626.832C161.902 626.832 161.422 626.926 161.008 627.113C160.602 627.301 160.281 627.547 160.047 627.852C159.82 628.156 159.707 628.484 159.707 628.836H157.539C157.539 628.383 157.656 627.934 157.891 627.488C158.125 627.043 158.461 626.641 158.898 626.281C159.344 625.914 159.875 625.625 160.492 625.414C161.117 625.195 161.812 625.086 162.578 625.086C163.5 625.086 164.312 625.242 165.016 625.555C165.727 625.867 166.281 626.34 166.68 626.973C167.086 627.598 167.289 628.383 167.289 629.328V635.234C167.289 635.656 167.324 636.105 167.395 636.582C167.473 637.059 167.586 637.469 167.734 637.812V638H165.473C165.363 637.75 165.277 637.418 165.215 637.004C165.152 636.582 165.121 636.191 165.121 635.832ZM165.496 630.312L165.52 631.836H163.328C162.711 631.836 162.16 631.887 161.676 631.988C161.191 632.082 160.785 632.227 160.457 632.422C160.129 632.617 159.879 632.863 159.707 633.16C159.535 633.449 159.449 633.789 159.449 634.18C159.449 634.578 159.539 634.941 159.719 635.27C159.898 635.598 160.168 635.859 160.527 636.055C160.895 636.242 161.344 636.336 161.875 636.336C162.539 636.336 163.125 636.195 163.633 635.914C164.141 635.633 164.543 635.289 164.84 634.883C165.145 634.477 165.309 634.082 165.332 633.699L166.258 634.742C166.203 635.07 166.055 635.434 165.812 635.832C165.57 636.23 165.246 636.613 164.84 636.98C164.441 637.34 163.965 637.641 163.41 637.883C162.863 638.117 162.246 638.234 161.559 638.234C160.699 638.234 159.945 638.066 159.297 637.73C158.656 637.395 158.156 636.945 157.797 636.383C157.445 635.812 157.27 635.176 157.27 634.473C157.27 633.793 157.402 633.195 157.668 632.68C157.934 632.156 158.316 631.723 158.816 631.379C159.316 631.027 159.918 630.762 160.621 630.582C161.324 630.402 162.109 630.312 162.977 630.312H165.496ZM172.867 627.312V638H170.699V625.32H172.809L172.867 627.312ZM176.828 625.25L176.816 627.266C176.637 627.227 176.465 627.203 176.301 627.195C176.145 627.18 175.965 627.172 175.762 627.172C175.262 627.172 174.82 627.25 174.438 627.406C174.055 627.562 173.73 627.781 173.465 628.062C173.199 628.344 172.988 628.68 172.832 629.07C172.684 629.453 172.586 629.875 172.539 630.336L171.93 630.688C171.93 629.922 172.004 629.203 172.152 628.531C172.309 627.859 172.547 627.266 172.867 626.75C173.188 626.227 173.594 625.82 174.086 625.531C174.586 625.234 175.18 625.086 175.867 625.086C176.023 625.086 176.203 625.105 176.406 625.145C176.609 625.176 176.75 625.211 176.828 625.25ZM184.727 625.32V626.984H177.871V625.32H184.727ZM180.191 622.238H182.359V634.859C182.359 635.289 182.426 635.613 182.559 635.832C182.691 636.051 182.863 636.195 183.074 636.266C183.285 636.336 183.512 636.371 183.754 636.371C183.934 636.371 184.121 636.355 184.316 636.324C184.52 636.285 184.672 636.254 184.773 636.23L184.785 638C184.613 638.055 184.387 638.105 184.105 638.152C183.832 638.207 183.5 638.234 183.109 638.234C182.578 638.234 182.09 638.129 181.645 637.918C181.199 637.707 180.844 637.355 180.578 636.863C180.32 636.363 180.191 635.691 180.191 634.848V622.238ZM192.531 638.234C191.648 638.234 190.848 638.086 190.129 637.789C189.418 637.484 188.805 637.059 188.289 636.512C187.781 635.965 187.391 635.316 187.117 634.566C186.844 633.816 186.707 632.996 186.707 632.105V631.613C186.707 630.582 186.859 629.664 187.164 628.859C187.469 628.047 187.883 627.359 188.406 626.797C188.93 626.234 189.523 625.809 190.188 625.52C190.852 625.23 191.539 625.086 192.25 625.086C193.156 625.086 193.938 625.242 194.594 625.555C195.258 625.867 195.801 626.305 196.223 626.867C196.645 627.422 196.957 628.078 197.16 628.836C197.363 629.586 197.465 630.406 197.465 631.297V632.27H187.996V630.5H195.297V630.336C195.266 629.773 195.148 629.227 194.945 628.695C194.75 628.164 194.438 627.727 194.008 627.383C193.578 627.039 192.992 626.867 192.25 626.867C191.758 626.867 191.305 626.973 190.891 627.184C190.477 627.387 190.121 627.691 189.824 628.098C189.527 628.504 189.297 629 189.133 629.586C188.969 630.172 188.887 630.848 188.887 631.613V632.105C188.887 632.707 188.969 633.273 189.133 633.805C189.305 634.328 189.551 634.789 189.871 635.188C190.199 635.586 190.594 635.898 191.055 636.125C191.523 636.352 192.055 636.465 192.648 636.465C193.414 636.465 194.062 636.309 194.594 635.996C195.125 635.684 195.59 635.266 195.988 634.742L197.301 635.785C197.027 636.199 196.68 636.594 196.258 636.969C195.836 637.344 195.316 637.648 194.699 637.883C194.09 638.117 193.367 638.234 192.531 638.234ZM207.988 635.539V620H210.168V638H208.176L207.988 635.539ZM199.457 631.801V631.555C199.457 630.586 199.574 629.707 199.809 628.918C200.051 628.121 200.391 627.438 200.828 626.867C201.273 626.297 201.801 625.859 202.41 625.555C203.027 625.242 203.715 625.086 204.473 625.086C205.27 625.086 205.965 625.227 206.559 625.508C207.16 625.781 207.668 626.184 208.082 626.715C208.504 627.238 208.836 627.871 209.078 628.613C209.32 629.355 209.488 630.195 209.582 631.133V632.211C209.496 633.141 209.328 633.977 209.078 634.719C208.836 635.461 208.504 636.094 208.082 636.617C207.668 637.141 207.16 637.543 206.559 637.824C205.957 638.098 205.254 638.234 204.449 638.234C203.707 638.234 203.027 638.074 202.41 637.754C201.801 637.434 201.273 636.984 200.828 636.406C200.391 635.828 200.051 635.148 199.809 634.367C199.574 633.578 199.457 632.723 199.457 631.801ZM201.637 631.555V631.801C201.637 632.434 201.699 633.027 201.824 633.582C201.957 634.137 202.16 634.625 202.434 635.047C202.707 635.469 203.055 635.801 203.477 636.043C203.898 636.277 204.402 636.395 204.988 636.395C205.707 636.395 206.297 636.242 206.758 635.938C207.227 635.633 207.602 635.23 207.883 634.73C208.164 634.23 208.383 633.688 208.539 633.102V630.277C208.445 629.848 208.309 629.434 208.129 629.035C207.957 628.629 207.73 628.27 207.449 627.957C207.176 627.637 206.836 627.383 206.43 627.195C206.031 627.008 205.559 626.914 205.012 626.914C204.418 626.914 203.906 627.039 203.477 627.289C203.055 627.531 202.707 627.867 202.434 628.297C202.16 628.719 201.957 629.211 201.824 629.773C201.699 630.328 201.637 630.922 201.637 631.555Z" fill="white"/>
<path opacity="0.5" d="M-52.8614 591.418C-44.1014 565.23 -15.7705 551.101 10.4175 559.861L174.98 614.908C201.168 623.668 215.296 651.999 206.536 678.187L139.22 879.429C130.46 905.617 102.129 919.745 75.9408 910.985L-88.6216 855.939C-114.81 847.179 -128.938 818.848 -120.178 792.66L-52.8614 591.418Z" fill="#F3C627" fill-opacity="0.97"/>
<circle cx="421.5" cy="830.5" r="0.5" fill="#D9D9D9"/>
<ellipse cx="597.894" cy="1047.08" rx="130.874" ry="108.877" transform="rotate(-52.7348 597.894 1047.08)" fill="#0F531E" fill-opacity="0.79"/>
<circle cx="1366.5" cy="749.5" r="44.5" fill="#0F531E" fill-opacity="0.76"/>
</g>
<defs>
<clipPath id="clip0_2_2">
<rect width="1501" height="993" fill="white"/>
</clipPath>
</defs>
</svg>
