<svg width="192" height="32" viewBox="0 0 192 32" fill="none" xmlns="http://www.w3.org/2000/svg">
<rect width="192" height="32" fill="#F5F5F5"/>
<path d="M15.9448 0L174 28.5H0.0552216L15.9448 0Z" fill="#152BEF" fill-opacity="0.97"/>
<path d="M52.8097 27L55.1037 13.1818H59.7727C60.8523 13.1818 61.7047 13.3752 62.3299 13.7621C62.9596 14.1489 63.3847 14.6729 63.6051 15.3342C63.83 15.9954 63.875 16.7353 63.7401 17.554C63.6051 18.3636 63.315 19.1013 62.8697 19.767C62.4289 20.4328 61.8306 20.9635 61.0749 21.3594C60.3237 21.7552 59.4129 21.9531 58.3423 21.9531H54.9957L55.2386 20.4688H58.5312C59.2689 20.4688 59.8852 20.3406 60.38 20.0842C60.8748 19.8278 61.2616 19.4792 61.5405 19.0384C61.8194 18.5975 62.0038 18.1027 62.0938 17.554C62.1837 16.9962 62.1612 16.5014 62.0263 16.0696C61.8958 15.6333 61.6237 15.2914 61.2099 15.044C60.8005 14.7921 60.2225 14.6662 59.4759 14.6662H56.5341L54.483 27H52.8097ZM68.5221 13.1818L66.2281 27H64.6357L66.9298 13.1818H68.5221ZM72.1673 27.2429C71.5105 27.2429 70.9348 27.1192 70.44 26.8718C69.9452 26.6199 69.5786 26.2578 69.3402 25.7855C69.1018 25.3087 69.0366 24.733 69.1445 24.0582C69.248 23.4645 69.4482 22.9832 69.745 22.6143C70.0419 22.241 70.4018 21.9486 70.8246 21.7372C71.2519 21.5213 71.7107 21.3616 72.201 21.2582C72.6958 21.1502 73.1883 21.067 73.6786 21.0085C74.3174 20.9276 74.8369 20.8646 75.2372 20.8196C75.6375 20.7746 75.9389 20.7004 76.1413 20.5969C76.3438 20.4935 76.4674 20.3158 76.5124 20.0639V20.0099C76.6204 19.3487 76.5327 18.8337 76.2493 18.4648C75.9659 18.0915 75.4599 17.9048 74.7312 17.9048C73.9755 17.9048 73.3435 18.0713 72.8352 18.4041C72.3269 18.737 71.9513 19.0923 71.7085 19.4702L70.305 18.9304C70.6739 18.3007 71.1147 17.8104 71.6275 17.4595C72.1403 17.1042 72.6778 16.8568 73.2401 16.7173C73.8023 16.5734 74.3443 16.5014 74.8661 16.5014C75.199 16.5014 75.5746 16.5419 75.9929 16.6229C76.4112 16.6993 76.8026 16.859 77.1669 17.1019C77.5357 17.3448 77.8124 17.7114 77.9968 18.2017C78.1857 18.692 78.2127 19.3487 78.0778 20.1719L76.9442 27H75.3519L75.5948 25.5966H75.5138C75.3699 25.8215 75.1495 26.0621 74.8526 26.3185C74.5603 26.5749 74.1892 26.7931 73.7393 26.973C73.294 27.1529 72.77 27.2429 72.1673 27.2429ZM72.6261 25.8125C73.2558 25.8125 73.8068 25.6888 74.2791 25.4414C74.7559 25.194 75.1383 24.8746 75.4261 24.4833C75.7185 24.092 75.9007 23.6804 75.9727 23.2486L76.2156 21.7912C76.1346 21.8722 75.9749 21.9464 75.7365 22.0138C75.4981 22.0768 75.2282 22.133 74.9268 22.1825C74.63 22.2275 74.3398 22.268 74.0565 22.304C73.7776 22.3355 73.5527 22.3625 73.3817 22.3849C72.9589 22.4389 72.5563 22.5266 72.174 22.6481C71.7962 22.765 71.4768 22.9427 71.2159 23.1811C70.9595 23.415 70.7998 23.7344 70.7369 24.1392C70.6424 24.6925 70.7751 25.1108 71.1349 25.3942C71.4948 25.6731 71.9918 25.8125 72.6261 25.8125ZM84.0338 27.2159C83.0577 27.2159 82.2571 26.9865 81.6318 26.5277C81.0111 26.0689 80.5793 25.4369 80.3364 24.6317C80.0935 23.8266 80.0575 22.9067 80.2284 21.8722C80.3994 20.8196 80.7457 19.8907 81.2675 19.0856C81.7893 18.2759 82.4392 17.6439 83.2174 17.1896C83.9956 16.7308 84.8525 16.5014 85.7881 16.5014C86.5168 16.5014 87.151 16.6364 87.6908 16.9062C88.2306 17.1761 88.6466 17.554 88.939 18.0398C89.2314 18.5256 89.3686 19.0923 89.3506 19.7401H87.7583C87.7133 19.2678 87.5109 18.8494 87.151 18.4851C86.7957 18.1162 86.2694 17.9318 85.5722 17.9318C84.9514 17.9318 84.3802 18.0937 83.8584 18.4176C83.3366 18.737 82.8981 19.189 82.5427 19.7738C82.1874 20.354 81.9467 21.0355 81.8208 21.8182C81.6858 22.6188 81.6971 23.3161 81.8545 23.9098C82.0119 24.5036 82.2976 24.9646 82.7114 25.293C83.1252 25.6213 83.647 25.7855 84.2767 25.7855C84.6905 25.7855 85.0774 25.7135 85.4372 25.5696C85.7971 25.4257 86.1164 25.2188 86.3953 24.9489C86.6742 24.679 86.8946 24.3551 87.0566 23.9773H88.6489C88.451 24.589 88.1338 25.14 87.6975 25.6303C87.2612 26.1161 86.7327 26.503 86.1119 26.7908C85.4912 27.0742 84.7985 27.2159 84.0338 27.2159ZM94.782 27.2159C93.788 27.2159 92.9671 26.9955 92.3193 26.5547C91.6716 26.1094 91.2195 25.4886 90.9632 24.6925C90.7068 23.8918 90.6663 22.9607 90.8417 21.8991C91.0171 20.8376 91.3657 19.902 91.8875 19.0923C92.4093 18.2782 93.0593 17.6439 93.8374 17.1896C94.6156 16.7308 95.4703 16.5014 96.4014 16.5014C96.9411 16.5014 97.4607 16.5914 97.96 16.7713C98.4593 16.9512 98.8911 17.2436 99.2554 17.6484C99.6198 18.0488 99.8739 18.5795 100.018 19.2408C100.162 19.902 100.153 20.7161 99.9909 21.6832L99.8829 22.358H91.8943L92.1102 20.9815H98.4795C98.5829 20.3968 98.556 19.875 98.3985 19.4162C98.2456 18.9574 97.978 18.5953 97.5956 18.3299C97.2178 18.0645 96.7387 17.9318 96.1585 17.9318C95.5602 17.9318 95.0025 18.0937 94.4852 18.4176C93.9679 18.737 93.5361 19.1418 93.1897 19.6321C92.8434 20.1179 92.6275 20.6127 92.542 21.1165L92.3531 22.304C92.2181 23.1631 92.2384 23.8468 92.4138 24.3551C92.5937 24.8634 92.9063 25.23 93.3517 25.4549C93.797 25.6753 94.3547 25.7855 95.0249 25.7855C95.4523 25.7855 95.8459 25.727 96.2057 25.6101C96.5655 25.4886 96.8872 25.3087 97.1705 25.0703C97.4539 24.8274 97.6923 24.526 97.8857 24.1662L99.3431 24.598C99.0957 25.1198 98.7471 25.5786 98.2973 25.9744C97.852 26.3658 97.3302 26.6716 96.732 26.892C96.1382 27.108 95.4883 27.2159 94.782 27.2159ZM101.56 27L103.287 16.6364H104.825L104.555 18.2557H104.69C105.001 17.7024 105.421 17.2728 105.952 16.967C106.487 16.6566 107.092 16.5014 107.767 16.5014C108.442 16.5014 108.984 16.6566 109.393 16.967C109.802 17.2728 110.088 17.7024 110.25 18.2557H110.358C110.709 17.7159 111.177 17.2886 111.761 16.9737C112.351 16.6589 113.016 16.5014 113.758 16.5014C114.676 16.5014 115.382 16.7915 115.877 17.3718C116.376 17.9521 116.525 18.8494 116.322 20.0639L115.162 27H113.57L114.73 20.0639C114.851 19.2947 114.73 18.7482 114.366 18.4244C114.006 18.096 113.543 17.9318 112.976 17.9318C112.247 17.9318 111.647 18.15 111.174 18.5863C110.702 19.0226 110.412 19.5781 110.304 20.2528L109.17 27H107.551L108.739 19.902C108.833 19.3082 108.721 18.8314 108.401 18.4716C108.082 18.1117 107.619 17.9318 107.011 17.9318C106.597 17.9318 106.193 18.0443 105.797 18.2692C105.401 18.4896 105.061 18.7955 104.778 19.1868C104.495 19.5736 104.312 20.0189 104.231 20.5227L103.152 27H101.56ZM122.391 27.2159C121.397 27.2159 120.576 26.9955 119.929 26.5547C119.281 26.1094 118.829 25.4886 118.573 24.6925C118.316 23.8918 118.276 22.9607 118.451 21.8991C118.627 20.8376 118.975 19.902 119.497 19.0923C120.019 18.2782 120.669 17.6439 121.447 17.1896C122.225 16.7308 123.08 16.5014 124.011 16.5014C124.551 16.5014 125.07 16.5914 125.569 16.7713C126.069 16.9512 126.5 17.2436 126.865 17.6484C127.229 18.0488 127.483 18.5795 127.627 19.2408C127.771 19.902 127.762 20.7161 127.6 21.6832L127.492 22.358H119.504L119.72 20.9815H126.089C126.192 20.3968 126.165 19.875 126.008 19.4162C125.855 18.9574 125.587 18.5953 125.205 18.3299C124.827 18.0645 124.348 17.9318 123.768 17.9318C123.17 17.9318 122.612 18.0937 122.095 18.4176C121.577 18.737 121.145 19.1418 120.799 19.6321C120.453 20.1179 120.237 20.6127 120.151 21.1165L119.962 22.304C119.828 23.1631 119.848 23.8468 120.023 24.3551C120.203 24.8634 120.516 25.23 120.961 25.4549C121.406 25.6753 121.964 25.7855 122.634 25.7855C123.062 25.7855 123.455 25.727 123.815 25.6101C124.175 25.4886 124.497 25.3087 124.78 25.0703C125.063 24.8274 125.302 24.526 125.495 24.1662L126.953 24.598C126.705 25.1198 126.357 25.5786 125.907 25.9744C125.461 26.3658 124.94 26.6716 124.341 26.892C123.748 27.108 123.098 27.2159 122.391 27.2159ZM131.787 20.7656L130.761 27H129.169L130.896 16.6364H132.435L132.165 18.2557H132.3C132.623 17.7294 133.062 17.3066 133.615 16.9872C134.169 16.6634 134.837 16.5014 135.619 16.5014C136.312 16.5014 136.897 16.6454 137.373 16.9332C137.855 17.2166 138.194 17.6484 138.392 18.2287C138.595 18.8045 138.624 19.5331 138.48 20.4148L137.373 27H135.781L136.861 20.5227C136.996 19.7131 136.89 19.0788 136.544 18.62C136.202 18.1612 135.66 17.9318 134.918 17.9318C134.405 17.9318 133.93 18.042 133.494 18.2624C133.062 18.4828 132.695 18.8045 132.394 19.2273C132.097 19.6501 131.895 20.1629 131.787 20.7656ZM146.518 16.6364L146.302 17.9858H140.931L141.147 16.6364H146.518ZM143.117 14.1534H144.709L143.063 24.0312C142.991 24.4811 143.002 24.8184 143.097 25.0433C143.196 25.2637 143.344 25.4122 143.542 25.4886C143.744 25.5606 143.963 25.5966 144.197 25.5966C144.372 25.5966 144.516 25.5876 144.628 25.5696C144.741 25.5471 144.831 25.5291 144.898 25.5156L145.006 26.946C144.885 26.9865 144.721 27.027 144.514 27.0675C144.311 27.1125 144.062 27.1349 143.765 27.1349C143.315 27.1349 142.892 27.0382 142.496 26.8448C142.1 26.6514 141.797 26.3568 141.585 25.9609C141.374 25.5651 141.318 25.0658 141.417 24.4631L143.117 14.1534ZM147.624 27L149.918 13.1818H158.258L158.015 14.6662H151.349L150.566 19.3352H156.8L156.557 20.8196H150.323L149.54 25.5156H156.314L156.072 27H147.624ZM162.664 27.2159C161.795 27.2159 161.067 26.9978 160.477 26.5614C159.888 26.1206 159.472 25.4999 159.229 24.6992C158.991 23.8941 158.962 22.9427 159.142 21.8452C159.326 20.7566 159.67 19.812 160.174 19.0114C160.682 18.2107 161.305 17.5922 162.043 17.1559C162.78 16.7196 163.586 16.5014 164.458 16.5014C165.133 16.5014 165.648 16.6139 166.003 16.8388C166.363 17.0592 166.624 17.3111 166.786 17.5945C166.948 17.8733 167.072 18.1027 167.157 18.2827H167.292L168.142 13.1818H169.735L167.441 27H165.902L166.172 25.4077H165.983C165.835 25.5966 165.628 25.835 165.362 26.1229C165.097 26.4062 164.746 26.6604 164.31 26.8853C163.878 27.1057 163.329 27.2159 162.664 27.2159ZM163.055 25.7855C163.694 25.7855 164.265 25.6191 164.769 25.2862C165.277 24.9489 165.7 24.4833 166.037 23.8896C166.374 23.2913 166.608 22.6009 166.739 21.8182C166.869 21.0445 166.865 20.3675 166.725 19.7873C166.586 19.2025 166.318 18.7482 165.922 18.4244C165.527 18.096 165.003 17.9318 164.35 17.9318C163.68 17.9318 163.098 18.105 162.603 18.4513C162.108 18.7932 161.705 19.2588 161.395 19.848C161.085 20.4328 160.869 21.0895 160.747 21.8182C160.626 22.5559 160.624 23.2261 160.741 23.8288C160.858 24.4271 161.105 24.9039 161.483 25.2592C161.865 25.6101 162.389 25.7855 163.055 25.7855ZM174.1 31.1023C173.326 31.1023 172.679 31.0033 172.157 30.8054C171.635 30.612 171.217 30.3556 170.902 30.0362C170.587 29.7214 170.349 29.384 170.187 29.0241L171.617 28.1335C171.725 28.3224 171.864 28.5384 172.035 28.7812C172.206 29.0286 172.465 29.2423 172.811 29.4222C173.162 29.6067 173.655 29.6989 174.289 29.6989C175.121 29.6989 175.85 29.4964 176.475 29.0916C177.1 28.6868 177.487 28.0526 177.635 27.1889L177.959 25.0838H177.824C177.68 25.2727 177.48 25.5066 177.224 25.7855C176.968 26.0599 176.623 26.305 176.192 26.521C175.76 26.7324 175.206 26.8381 174.532 26.8381C173.691 26.8381 172.971 26.6402 172.373 26.2443C171.774 25.8485 171.345 25.2727 171.084 24.517C170.828 23.7614 170.789 22.8437 170.969 21.7642C171.145 20.7027 171.482 19.7783 171.981 18.9911C172.485 18.1995 173.106 17.5877 173.844 17.1559C174.581 16.7196 175.386 16.5014 176.259 16.5014C176.934 16.5014 177.451 16.6139 177.811 16.8388C178.175 17.0592 178.441 17.3111 178.607 17.5945C178.773 17.8733 178.899 18.1027 178.985 18.2827H179.147L179.417 16.6364H180.955L179.201 27.2969C179.052 28.1875 178.731 28.9117 178.236 29.4695C177.741 30.0317 177.134 30.4433 176.414 30.7042C175.695 30.9696 174.923 31.1023 174.1 31.1023ZM174.937 25.4077C175.571 25.4077 176.135 25.2615 176.63 24.9691C177.129 24.6767 177.543 24.2562 177.872 23.7074C178.2 23.1586 178.427 22.5019 178.553 21.7372C178.679 20.9905 178.67 20.3316 178.526 19.7603C178.382 19.189 178.11 18.7415 177.71 18.4176C177.314 18.0937 176.794 17.9318 176.151 17.9318C175.472 17.9318 174.885 18.1027 174.39 18.4446C173.9 18.7865 173.502 19.2453 173.196 19.821C172.89 20.3968 172.679 21.0355 172.562 21.7372C172.445 22.4569 172.449 23.0934 172.575 23.6467C172.701 24.1954 172.957 24.6272 173.344 24.9421C173.736 25.2525 174.266 25.4077 174.937 25.4077ZM186.461 27.2159C185.467 27.2159 184.646 26.9955 183.998 26.5547C183.35 26.1094 182.898 25.4886 182.642 24.6925C182.385 23.8918 182.345 22.9607 182.52 21.8991C182.696 20.8376 183.044 19.902 183.566 19.0923C184.088 18.2782 184.738 17.6439 185.516 17.1896C186.294 16.7308 187.149 16.5014 188.08 16.5014C188.62 16.5014 189.139 16.5914 189.639 16.7713C190.138 16.9512 190.57 17.2436 190.934 17.6484C191.298 18.0488 191.553 18.5795 191.697 19.2408C191.84 19.902 191.831 20.7161 191.67 21.6832L191.562 22.358H183.573L183.789 20.9815H190.158C190.262 20.3968 190.235 19.875 190.077 19.4162C189.924 18.9574 189.657 18.5953 189.274 18.3299C188.896 18.0645 188.417 17.9318 187.837 17.9318C187.239 17.9318 186.681 18.0937 186.164 18.4176C185.647 18.737 185.215 19.1418 184.868 19.6321C184.522 20.1179 184.306 20.6127 184.221 21.1165L184.032 22.304C183.897 23.1631 183.917 23.8468 184.093 24.3551C184.272 24.8634 184.585 25.23 185.03 25.4549C185.476 25.6753 186.033 25.7855 186.704 25.7855C187.131 25.7855 187.525 25.727 187.884 25.6101C188.244 25.4886 188.566 25.3087 188.849 25.0703C189.133 24.8274 189.371 24.526 189.564 24.1662L191.022 24.598C190.774 25.1198 190.426 25.5786 189.976 25.9744C189.531 26.3658 189.009 26.6716 188.411 26.892C187.817 27.108 187.167 27.2159 186.461 27.2159Z" fill="#F5F5F5"/>
</svg>
